<?xml version="1.0" encoding="utf-8"?>
<!-- Generator: Adobe Illustrator 21.0.0, SVG Export Plug-In . SVG Version: 6.00 Build 0)  -->
<svg version="1.1" id="Ebene_1" xmlns="http://www.w3.org/2000/svg" xmlns:xlink="http://www.w3.org/1999/xlink" x="0px" y="0px"
	 viewBox="0 0 101 101" style="enable-background:new 0 0 101 101;" xml:space="preserve">
<style type="text/css">
	.st0{fill:#FFFFFF;}
	.st1{fill:#0F4C70;}
</style>
<g>
	<path class="st0" d="M79.5,0.4L20.8,0.1L0,20.9v58.7l21.3,21.3h59.2L101,80.3V21.9L79.5,0.4z M80.9,50.7c0,17.1-13.9,31-31,31
		s-31-13.9-31-31c0-16.4,12.8-29.8,28.9-30.9c1.2-3.2,4.2-5.1,7-4.4c2.4,0.6,3.9,2.9,4.1,5.6c4.1,1.3,7.9,3.3,11.1,6.1
		c16.5-7,26.4-6.2,26.4-6.2c-8.4,1.2-16.5,4.7-23.6,8.8C77.8,35.3,80.9,42.6,80.9,50.7z"/>
	<path class="st0" d="M73.9,44.7c-0.3-0.8-0.8-1.1-1.4-0.9c-0.6,0.2-0.9,0.7-0.8,1.5L73.9,44.7z"/>
	<path class="st0" d="M46.1,51.1c-0.6,0.2-0.9,0.7-0.8,1.5l2.2-0.6C47.1,51.2,46.7,50.9,46.1,51.1z"/>
	<path class="st0" d="M47.6,49.4l-15-16.3l2.2-4.2c-6.9,4.8-11.4,12.8-11.4,21.8c0,9.4,4.9,17.7,12.4,22.4
		c2.7-2.6,9.5-9.4,15.2-17.1c0,0,6.6,6.3,18.8,12.2c4.1-4.7,6.6-10.8,6.6-17.5c0-7.2-2.9-13.7-7.6-18.5
		C56.2,40.2,47.6,49.4,47.6,49.4z M60,44.3c0.3-0.1,0.7,0.1,0.8,0.5s-0.1,0.7-0.5,0.8s-0.7-0.1-0.8-0.4C59.4,44.8,59.6,44.4,60,44.3
		z M33.3,51.7c0.3-0.1,0.7,0.1,0.8,0.4c0.1,0.3-0.1,0.7-0.4,0.8c-0.3,0.1-0.7-0.1-0.8-0.4C32.8,52.2,33,51.8,33.3,51.7z M31.6,52.2
		c0.3-0.1,0.7,0.1,0.8,0.4c0.1,0.3-0.1,0.7-0.4,0.8c-0.3,0.1-0.7-0.1-0.8-0.4C31.1,52.7,31.3,52.3,31.6,52.2z M26.6,60.9l-1.9-6.7
		l1-0.3l1.9,6.7L26.6,60.9z M30.3,59.9l-3.6-2.8l1.7-3.9l1.2-0.3l-1.7,3.8l3.8,2.8L30.3,59.9z M34.4,58.9c-1.3,0.4-2.5-0.4-2.9-1.9
		c-0.4-1.4,0.3-2.7,1.5-3.1c1.3-0.4,2.5,0.4,2.9,1.9C36.3,57.3,35.7,58.6,34.4,58.9z M37.7,57.9l-1.9-6.7l1-0.3l1.9,6.7L37.7,57.9z
		 M43,56.4l-0.7-2.6c-0.2-0.6-0.3-0.8-0.4-1c-0.2-0.2-0.5-0.3-0.8-0.2c-0.4,0.1-0.7,0.4-0.8,0.8c-0.1,0.2,0,0.5,0.1,1l0.7,2.5
		l-1,0.3l-0.9-3.1c-0.3-1.2-0.3-1.2-0.6-1.6l0.9-0.3c0.1,0.2,0.2,0.3,0.3,0.6c0.2-0.6,0.6-1,1.2-1.2c0.6-0.2,1.2,0,1.6,0.4
		c0.2,0.3,0.3,0.5,0.6,1.3L44,56L43,56.4z M47.3,55.3c-1.3,0.4-2.5-0.4-2.9-1.8c-0.4-1.5,0.2-2.8,1.5-3.2c1.2-0.3,2.3,0.4,2.7,1.9
		c0,0,0,0.1,0,0.2l-3.2,0.9c0.3,0.9,0.9,1.3,1.7,1.1c0.5-0.1,0.7-0.4,0.8-0.9l0.9-0.2C48.8,54.4,48.3,55.1,47.3,55.3z M51.3,49.8
		c-0.4,0.1-0.6,0.4-0.7,0.9c0,0.3,0,0.7,0.2,1.2l0.6,2.2l-1,0.3l-0.9-3.2c-0.3-1-0.3-1.1-0.5-1.5l0.9-0.3c0.1,0.2,0.2,0.5,0.3,0.7
		c0,0.1,0,0.2,0.1,0.3c0.1-0.9,0.5-1.3,1-1.5c0.1,0,0.3,0,0.5,0l0.3,1C51.7,49.7,51.5,49.7,51.3,49.8z M56.5,52.6l-1.9-6.7l1.1-0.3
		l1.6,5.8l2.9-0.8l0.2,0.9L56.5,52.6z M61.4,51.3L60,46.5l1-0.3l1.3,4.8L61.4,51.3z M65.5,50.3c-1.3,0.4-2.1,0-2.4-1.1l0.9-0.3
		c0.2,0.6,0.6,0.8,1.2,0.6c0.5-0.2,0.8-0.5,0.7-0.9c-0.1-0.2-0.2-0.3-0.5-0.4c-0.2,0-0.3,0-1.1-0.1c-1,0-1.5-0.3-1.7-1
		c-0.2-0.9,0.3-1.7,1.4-2s1.9,0.1,2.2,1l-0.9,0.3c-0.2-0.5-0.5-0.7-1.1-0.5c-0.5,0.1-0.7,0.5-0.6,0.8c0.1,0.3,0.3,0.4,1.3,0.4
		c0.8,0,1.1,0.1,1.4,0.3c0.2,0.2,0.4,0.4,0.5,0.7C67.1,49.2,66.6,49.9,65.5,50.3z M72.3,43c1.3-0.3,2.3,0.4,2.7,1.9c0,0,0,0.1,0,0.2
		L71.8,46c0.3,0.9,0.9,1.3,1.7,1.1c0.5-0.1,0.7-0.4,0.8-0.9l0.9-0.2c0,1-0.6,1.6-1.5,1.9c-1.3,0.4-2.5-0.4-2.9-1.8
		C70.4,44.6,71,43.3,72.3,43z M69.1,47.1c0.1,0.3,0.1,0.3,0.1,0.4c0.1,0.3,0.1,0.4,0.2,0.5s0.3,0.2,0.5,0.1c0.2-0.1,0.4-0.2,0.7-0.4
		l0.2,0.8c-0.3,0.2-0.6,0.4-0.9,0.5c-0.5,0.1-1,0.1-1.2-0.2c-0.2-0.2-0.3-0.4-0.4-0.8c0-0.1,0-0.1-0.1-0.6l-0.5-2.1L67,45.5
		l-0.2-0.8l0.7-0.2L67,43.1l1-0.3l0.4,1.4l1-0.3l0.2,0.8l-1,0.3L69.1,47.1z"/>
	<path class="st0" d="M62.2,73.6c0,0-9.5-6-11-7.5l-6.5,10.6l-3-0.7c2.6,0.8,5.3,1.3,8.1,1.3c6.1,0,11.8-2.1,16.3-5.6L62.2,73.6z"/>
	<path class="st0" d="M33.2,54.7c-0.7,0.2-1,1-0.7,2s1,1.6,1.7,1.4c0.7-0.2,1-1,0.7-2C34.6,55.1,33.9,54.5,33.2,54.7z"/>
	<path class="st0" d="M48.1,39.2c6.2-4.3,12-7.5,17.2-10.1c-2.2-1.6-4.7-2.9-7.4-3.8c-1.4,2.7-4.1,4.3-6.6,3.6
		c-2.1-0.5-3.6-2.4-4-4.7c-3.5,0.3-6.7,1.3-9.7,2.9C40.3,31.5,48.1,39.2,48.1,39.2z"/>
	<path class="st1" d="M70,27.1c-3.2-2.7-7-4.8-11.1-6.1c-0.2-2.7-1.7-5-4.1-5.6c-2.8-0.7-5.7,1.2-7,4.4
		c-16.1,1.1-28.9,14.5-28.9,30.9c0,17.1,13.9,31,31,31s31-13.9,31-31c0-8-3.1-15.4-8.1-20.9c7.1-4.1,15.2-7.6,23.6-8.8
		C96.3,20.9,86.4,20.1,70,27.1z M41.8,75.9l3,0.7L51.3,66c1.5,1.5,11,7.5,11,7.5l3.9-2C61.7,75,56,77.1,49.9,77.1
		C47.1,77.2,44.3,76.7,41.8,75.9z M69.8,68.1C57.6,62.2,51,56,51,56c-5.7,7.8-12.5,14.5-15.2,17.1c-7.4-4.7-12.4-13-12.4-22.4
		c0-9,4.5-17,11.4-21.8l-2.2,4.2l14.9,16.3c0,0,8.7-9.3,21.3-17.3c4.7,4.8,7.6,11.3,7.6,18.5C76.4,57.3,73.9,63.5,69.8,68.1z
		 M47.3,24.3c0.4,2.3,1.9,4.2,4,4.7c2.6,0.6,5.2-0.9,6.6-3.6c2.7,0.9,5.2,2.1,7.4,3.8c-5.2,2.5-11,5.8-17.2,10.1
		c0,0-7.8-7.7-10.5-12.1C40.6,25.6,43.9,24.6,47.3,24.3z"/>
	<polygon class="st1" points="29.6,52.9 28.4,53.3 26.7,57.1 30.3,59.9 31.7,59.5 27.9,56.8 	"/>
	<rect x="25.7" y="54" transform="matrix(0.9633 -0.2684 0.2684 0.9633 -14.4546 9.1527)" class="st1" width="1.1" height="6.9"/>
	<path class="st1" d="M33.7,53c0.3-0.1,0.5-0.4,0.4-0.8c-0.1-0.3-0.4-0.5-0.8-0.4c-0.4,0.1-0.5,0.4-0.5,0.8
		C33,52.9,33.3,53.1,33.7,53z"/>
	<path class="st1" d="M31.9,53.4c0.3-0.1,0.5-0.4,0.4-0.8c-0.1-0.3-0.4-0.5-0.8-0.4c-0.3,0.1-0.5,0.4-0.4,0.8
		C31.3,53.3,31.6,53.5,31.9,53.4z"/>
	<path class="st1" d="M33,53.9c-1.3,0.4-1.9,1.7-1.5,3.1c0.4,1.5,1.6,2.3,2.9,1.9c1.3-0.4,1.9-1.7,1.5-3.1
		C35.5,54.3,34.3,53.5,33,53.9z M34.2,58.1c-0.7,0.2-1.4-0.3-1.7-1.4c-0.3-1,0-1.8,0.7-2s1.4,0.4,1.7,1.4S34.9,57.9,34.2,58.1z"/>
	<rect x="36.7" y="50.9" transform="matrix(0.9633 -0.2684 0.2684 0.9633 -13.2371 11.9832)" class="st1" width="1" height="7"/>
	<path class="st1" d="M42.6,52c-0.4-0.4-0.9-0.5-1.6-0.4c-0.6,0.2-1,0.6-1.2,1.2c-0.1-0.3-0.2-0.5-0.3-0.6l-0.9,0.3
		c0.3,0.4,0.3,0.5,0.6,1.6l0.9,3.1l1-0.3l-0.7-2.5c-0.1-0.4-0.1-0.7-0.1-1c0.1-0.4,0.4-0.7,0.8-0.8c0.3-0.1,0.6,0,0.8,0.2
		s0.2,0.4,0.4,1l0.7,2.6l1-0.3l-0.8-2.7C43,52.5,42.9,52.3,42.6,52z"/>
	<path class="st1" d="M47.1,54.5c-0.8,0.2-1.4-0.2-1.7-1.1l3.2-0.9c0-0.1,0-0.2,0-0.2c-0.4-1.5-1.5-2.3-2.7-1.9
		c-1.3,0.4-1.9,1.6-1.5,3.2c0.4,1.5,1.6,2.2,2.9,1.8c1-0.3,1.5-0.9,1.5-1.9l-0.9,0.2C47.8,54.1,47.6,54.4,47.1,54.5z M46.1,51.1
		c0.6-0.2,1.1,0.1,1.4,0.9l-2.2,0.6C45.2,51.8,45.4,51.3,46.1,51.1z"/>
	<path class="st1" d="M51.2,48.8c-0.5,0.2-0.9,0.6-1,1.5c0-0.1,0-0.2-0.1-0.3c-0.1-0.3-0.2-0.5-0.3-0.7L49,49.6
		c0.2,0.4,0.2,0.5,0.5,1.5l0.9,3.2l1-0.3l-0.6-2.2c-0.1-0.5-0.2-0.9-0.2-1.2c0.1-0.5,0.3-0.8,0.7-0.9c0.2-0.1,0.4-0.1,0.7,0l-0.3-1
		C51.5,48.8,51.4,48.8,51.2,48.8z"/>
	<polygon class="st1" points="57.3,51.4 55.7,45.6 54.7,45.9 56.5,52.6 60.4,51.5 60.2,50.6 	"/>
	<rect x="60.7" y="46.3" transform="matrix(0.9633 -0.2684 0.2684 0.9633 -10.8376 18.2148)" class="st1" width="1" height="4.9"/>
	<path class="st1" d="M60.3,45.6c0.4-0.1,0.6-0.4,0.5-0.8c-0.1-0.4-0.4-0.6-0.8-0.5c-0.4,0.1-0.6,0.4-0.5,0.8
		C59.6,45.5,59.9,45.7,60.3,45.6z"/>
	<path class="st1" d="M66.4,47.5c-0.3-0.2-0.6-0.2-1.4-0.3c-1,0-1.2-0.1-1.3-0.4c-0.1-0.3,0.2-0.7,0.6-0.8c0.5-0.1,0.9,0,1.1,0.5
		l0.9-0.3c-0.3-1-1.1-1.3-2.2-1s-1.6,1.1-1.4,2c0.2,0.7,0.6,0.9,1.7,1c0.8,0,0.9,0,1.1,0.1c0.3,0,0.4,0.1,0.5,0.4
		c0.1,0.4-0.1,0.8-0.7,0.9c-0.6,0.2-1,0-1.2-0.6L63,49.1c0.3,1.1,1.2,1.5,2.4,1.1c1.1-0.3,1.7-1.1,1.4-2
		C66.8,47.9,66.6,47.7,66.4,47.5z"/>
	<path class="st1" d="M69.4,43.9l-1,0.3L68,42.8l-1,0.3l0.3,1.4l-0.7,0.2l0.2,0.8l0.7-0.2l0.5,2.1c0.1,0.5,0.1,0.5,0.1,0.6
		c0.1,0.4,0.2,0.6,0.4,0.8c0.3,0.3,0.7,0.4,1.2,0.2c0.3-0.1,0.6-0.2,0.9-0.5l-0.2-0.8c-0.2,0.2-0.4,0.3-0.7,0.4
		c-0.2,0.1-0.4,0-0.5-0.1s-0.1-0.2-0.2-0.5c0-0.1,0-0.1-0.1-0.4L68.5,45l1-0.3L69.4,43.9z"/>
	<path class="st1" d="M73.7,48c1-0.3,1.5-0.9,1.5-1.9l-0.9,0.2c-0.1,0.5-0.3,0.8-0.8,0.9c-0.8,0.2-1.4-0.2-1.7-1.1l3.2-0.9
		c0-0.1,0-0.2,0-0.2c-0.4-1.5-1.5-2.3-2.7-1.9c-1.3,0.4-1.9,1.6-1.5,3.2C71.2,47.6,72.4,48.3,73.7,48z M72.5,43.8
		c0.6-0.2,1.1,0.1,1.4,0.9l-2.2,0.6C71.6,44.4,71.9,43.9,72.5,43.8z"/>
</g>
</svg>
